<?xml version="1.0" encoding="UTF-8" standalone="no"?>
<!-- Created with Inkscape (http://www.inkscape.org/) -->

<svg
   xmlns:dc="http://purl.org/dc/elements/1.1/"
   xmlns:cc="http://creativecommons.org/ns#"
   xmlns:rdf="http://www.w3.org/1999/02/22-rdf-syntax-ns#"
   xmlns:svg="http://www.w3.org/2000/svg"
   xmlns="http://www.w3.org/2000/svg"
   xmlns:sodipodi="http://sodipodi.sourceforge.net/DTD/sodipodi-0.dtd"
   xmlns:inkscape="http://www.inkscape.org/namespaces/inkscape"
   width="26.822033mm"
   height="15.966723mm"
   viewBox="0 0 95.038698 56.575004"
   id="svg4272"
   version="1.1"
   inkscape:version="0.91 r13725"
   sodipodi:docname="logo.svg">
  <defs
     id="defs4274" />
  <sodipodi:namedview
     id="base"
     pagecolor="#ffffff"
     bordercolor="#666666"
     borderopacity="1.0"
     inkscape:pageopacity="0.0"
     inkscape:pageshadow="2"
     inkscape:zoom="1.4519531"
     inkscape:cx="27.20779"
     inkscape:cy="57.038885"
     inkscape:document-units="px"
     inkscape:current-layer="layer1"
     showgrid="false"
     fit-margin-top="0"
     fit-margin-left="0"
     fit-margin-right="0"
     fit-margin-bottom="0"
     inkscape:window-width="1024"
     inkscape:window-height="716"
     inkscape:window-x="-8"
     inkscape:window-y="-8"
     inkscape:window-maximized="1" />
  <metadata
     id="metadata4277">
    <rdf:RDF>
      <cc:Work
         rdf:about="">
        <dc:format>image/svg+xml</dc:format>
        <dc:type
           rdf:resource="http://purl.org/dc/dcmitype/StillImage" />
        <dc:title></dc:title>
      </cc:Work>
    </rdf:RDF>
  </metadata>
  <g
     inkscape:label="Layer 1"
     inkscape:groupmode="layer"
     id="layer1"
     transform="translate(-151.36344,-551.78854)">
    <path
       style="opacity:1;fill:#ffffff;fill-opacity:1;fill-rule:nonzero;stroke:none;stroke-width:3;stroke-linecap:round;stroke-linejoin:round;stroke-miterlimit:4;stroke-dasharray:none;stroke-dashoffset:0;stroke-opacity:1"
       d="m 199.78056,561.61591 a 25.660257,25.660257 0 0 0 -25.66056,25.66057 25.660257,25.660257 0 0 0 0.18722,2.95504 l 3.05848,0 a 22.635831,22.635831 0 0 1 -0.22126,-2.95504 22.635831,22.635831 0 0 1 22.63612,-22.63613 22.635831,22.635831 0 0 1 22.63614,22.63613 22.635831,22.635831 0 0 1 -0.21735,2.95504 l 3.03885,0 a 25.660257,25.660257 0 0 0 0.20293,-2.95504 25.660257,25.660257 0 0 0 -25.66057,-25.66057 z"
       id="path4235"
       inkscape:connector-curvature="0" />
    <path
       style="opacity:1;fill:#ffffff;fill-opacity:1;fill-rule:nonzero;stroke:none;stroke-width:3;stroke-linecap:round;stroke-linejoin:round;stroke-miterlimit:4;stroke-dasharray:none;stroke-dashoffset:0;stroke-opacity:1"
       d="m 151.36344,585.23741 1.30428,-1.97885 2.18391,1.20593 3.74347,-5.04501 c 0,0 3.34672,2.12937 5.16967,2.88523 9.85965,4.08818 22.19245,2.44689 30.79954,8.75911 1.90285,1.39552 3.89329,5.91247 3.89329,5.91247 0,0 2.3575,-4.19749 4.28891,-5.484 9.47516,-6.31137 22.07703,-5.62167 32.93373,-9.0486 1.78854,-0.56456 5.29813,-1.89426 5.29813,-1.89426 l 2.39567,3.72583 1.77626,-0.90168 1.25184,1.8638 -42.26423,20.30767 0.006,2.06638 c 0,0 -1.79952,0.50235 -2.72411,0.60194 -2.06278,0.22219 -4.74304,0.18227 -6.22411,-0.0179 -0.85615,-0.11571 -2.44869,-0.84926 -2.44869,-0.84926 l -0.19221,-2.04439 z"
       id="rect4237"
       inkscape:connector-curvature="0"
       sodipodi:nodetypes="ccccaacaaccccccasccc" />
    <path
       inkscape:connector-curvature="0"
       id="path4266"
       d="m 199.12574,569.78477 a 16.881824,16.881824 0 0 0 -16.88202,16.88202 16.881824,16.881824 0 0 0 0.12317,1.94412 l 2.01216,0 a 14.892062,14.892062 0 0 1 -0.14556,-1.94412 14.892062,14.892062 0 0 1 14.89225,-14.89226 14.892062,14.892062 0 0 1 14.89226,14.89226 14.892062,14.892062 0 0 1 -0.14299,1.94412 l 1.99925,0 a 16.881824,16.881824 0 0 0 0.13351,-1.94412 16.881824,16.881824 0 0 0 -16.88203,-16.88202 z"
       style="opacity:1;fill:#ffffff;fill-opacity:1;fill-rule:nonzero;stroke:none;stroke-width:3;stroke-linecap:round;stroke-linejoin:round;stroke-miterlimit:4;stroke-dasharray:none;stroke-dashoffset:0;stroke-opacity:1" />
    <path
       inkscape:connector-curvature="0"
       id="path4849"
       d="m 199.58839,551.78854 a 34.183573,34.183573 0 0 0 -34.18398,34.18399 34.183573,34.183573 0 0 0 0.24941,3.93659 l 4.07438,0 a 30.154554,30.154554 0 0 1 -0.29476,-3.93659 30.154554,30.154554 0 0 1 30.15495,-30.15495 30.154554,30.154554 0 0 1 30.15495,30.15495 30.154554,30.154554 0 0 1 -0.28953,3.93659 l 4.04823,0 a 34.183573,34.183573 0 0 0 0.27034,-3.93659 34.183573,34.183573 0 0 0 -34.18399,-34.18399 z"
       style="opacity:1;fill:#ffffff;fill-opacity:1;fill-rule:nonzero;stroke:none;stroke-width:3;stroke-linecap:round;stroke-linejoin:round;stroke-miterlimit:4;stroke-dasharray:none;stroke-dashoffset:0;stroke-opacity:1" />
  </g>
</svg>
